<?xml version="1.0" encoding="UTF-8"?>
<svg width="272px" height="354px" viewBox="0 0 272 354" version="1.1" xmlns="http://www.w3.org/2000/svg" xmlns:xlink="http://www.w3.org/1999/xlink">
    <title>favicon</title>
    <defs>
        <linearGradient x1="50%" y1="100%" x2="50%" y2="0%" id="linearGradient-1">
            <stop stop-color="#FF0000" offset="0%"></stop>
            <stop stop-color="#FFA400" offset="100%"></stop>
        </linearGradient>
    </defs>
    <g id="favicon" stroke="none" fill="none" fill-opacity="0.9" fill-rule="evenodd" opacity="0.98">
        <path d="M179.068794,288.715434 C168.109546,266.9821 145.57837,258.876434 133.194843,235.896751 C129.148683,228.388432 126.831101,220.311993 126.034811,211.794291 C125.150416,202.334151 125.499384,192.909889 128.24411,183.881596 L129.696915,179.102846 C122.656971,183.840619 116.377985,189.181471 110.265751,194.971645 C90.5857173,213.614715 74.5591518,239.251873 70.4604953,266.357665 C65.086749,298.808525 75.9734684,330.749554 99.331257,354 C64.8461884,344.828052 34.4358304,325.023578 16.1945608,294.205055 C7.4560238,279.441345 2.47028568,263.327077 0.606734886,246.304231 C-0.992865792,231.692473 0.586006164,217.213122 5.15882706,203.317067 C7.10682342,197.397424 9.36857201,191.928561 12.2408732,186.440143 C14.5092337,182.10574 16.7567907,178.022834 19.4453034,173.913498 C27.6438312,161.382216 35.1265427,152.216507 44.9125531,140.948161 L65.0921381,117.711876 C70.9256048,110.994786 76.331196,104.219916 81.5221623,97.0248322 C89.3658395,86.1528841 95.5027396,75.5237919 100.239305,62.9553835 C106.368678,46.6911807 107.820199,29.1133836 104.729023,12.007114 C103.985127,7.89046875 103.181493,4.26105423 101.8172,0.273662005 C101.807206,0.281154954 102.02572,0.115611188 102.177656,0 C121.474702,11.2126907 137.792616,23.7771809 152.820722,40.3173398 C174.025396,63.6555214 188.628698,91.8713982 192.561557,123.386562 C194.341231,137.647613 193.940439,151.94296 192.036402,166.120236 C191.814519,167.772354 191.636658,169.158189 191.726387,170.761862 C191.920089,174.223776 194.954802,176.584942 198.473867,175.986583 C204.511656,174.959957 210.883595,167.681129 214.078456,162.766355 C222.755147,149.41868 224.69971,132.940416 221.741156,117.487094 C221.766911,117.301383 221.817391,117.188293 221.9261,117.178155 C228.837348,123.720838 234.899028,130.726281 240.437795,138.450693 C245.118272,144.978125 249.433751,151.603475 253.24875,158.687548 C267.940394,185.968468 275.530044,218.506955 270.397511,249.336999 C268.844264,258.667031 266.34128,267.680244 262.646257,276.382417 C252.887914,299.364356 236.428448,318.932377 215.707593,332.847521 C206.781622,338.841779 197.464705,343.7752 187.377762,347.664001 C181.034019,350.109693 174.048605,352.371866 167.676177,353.952557 C167.431071,354.013356 166.949457,353.963033 167.005671,353.903055 L167.31279,353.575369 C173.434925,347.043251 178.436735,339.670987 181.5053,331.216833 C186.786378,316.667016 186.020326,302.501049 179.068794,288.715434 L179.068794,288.715434 Z" id="Path" fill="url(#linearGradient-1)"></path>
    </g>
</svg>