<?xml version="1.0" encoding="UTF-8"?>
<svg width="512px" height="512px" viewBox="0 0 512 512" version="1.1" xmlns="http://www.w3.org/2000/svg" xmlns:xlink="http://www.w3.org/1999/xlink">
    <title>hotsheet-icon</title>
    <defs>
        <path d="M0,0 L512,0 L512,512 L0,512 Z" id="path-1"></path>
        <linearGradient x1="50%" y1="100%" x2="50%" y2="0%" id="linearGradient-2">
            <stop stop-color="#FF0000" offset="0%"></stop>
            <stop stop-color="#FFA400" offset="100%"></stop>
        </linearGradient>
    </defs>
    <g id="hotsheet-icon" stroke="none" fill="none" xlink:href="#path-1">
        <use fill="#FFFFFF" fill-rule="evenodd" xlink:href="#path-1"></use>
        <line x1="0" y1="153" x2="512" y2="153" id="Line-Copy" stroke="#BFBFBF" stroke-width="6" opacity="0.9" stroke-linecap="square"></line>
        <line x1="0" y1="53.5002" x2="512" y2="53.5002" id="Line-Copy-6" stroke="#BFBFBF" stroke-width="6" opacity="0.9" stroke-linecap="square"></line>
        <line x1="0" y1="255.4999" x2="512" y2="255.4999" id="Line-Copy-2" stroke="#BFBFBF" stroke-width="6" opacity="0.9" stroke-linecap="square"></line>
        <line x1="0" y1="357.9998" x2="512" y2="357.9998" id="Line-Copy-3" stroke="#BFBFBF" stroke-width="6" opacity="0.9" stroke-linecap="square"></line>
        <line x1="0" y1="460.4997" x2="512" y2="460.4997" id="Line-Copy-5" stroke="#BFBFBF" stroke-width="6" opacity="0.9" stroke-linecap="square"></line>
        <line x1="152.5" y1="-0.5" x2="152.5" y2="512.5" id="Line" stroke="#FF0000" stroke-width="6" opacity="0.33" stroke-linecap="square"></line>
        <line x1="144.5" y1="-0.5" x2="144.5" y2="512.5" id="Line-Copy-4" stroke="#FF0000" stroke-width="6" opacity="0.33" stroke-linecap="square"></line>
        <path d="M299.068794,368.715434 C288.109546,346.9821 265.57837,338.876434 253.194843,315.896751 C249.148683,308.388432 246.831101,300.311993 246.034811,291.794291 C245.150416,282.334151 245.499384,272.909889 248.24411,263.881596 L249.696915,259.102846 C242.656971,263.840619 236.377985,269.181471 230.265751,274.971645 C210.585717,293.614715 194.559152,319.251873 190.460495,346.357665 C185.086749,378.808525 195.973468,410.749554 219.331257,434 C184.846188,424.828052 154.43583,405.023578 136.194561,374.205055 C127.456024,359.441345 122.470286,343.327077 120.606735,326.304231 C119.007134,311.692473 120.586006,297.213122 125.158827,283.317067 C127.106823,277.397424 129.368572,271.928561 132.240873,266.440143 C134.509234,262.10574 136.756791,258.022834 139.445303,253.913498 C147.643831,241.382216 155.126543,232.216507 164.912553,220.948161 L185.092138,197.711876 C190.925605,190.994786 196.331196,184.219916 201.522162,177.024832 C209.36584,166.152884 215.50274,155.523792 220.239305,142.955383 C226.368678,126.691181 227.820199,109.113384 224.729023,92.007114 C223.985127,87.8904688 223.181493,84.2610542 221.8172,80.273662 C221.807206,80.281155 222.02572,80.1156112 222.177656,80 C241.474702,91.2126907 257.792616,103.777181 272.820722,120.31734 C294.025396,143.655521 308.628698,171.871398 312.561557,203.386562 C314.341231,217.647613 313.940439,231.94296 312.036402,246.120236 C311.814519,247.772354 311.636658,249.158189 311.726387,250.761862 C311.920089,254.223776 314.954802,256.584942 318.473867,255.986583 C324.511656,254.959957 330.883595,247.681129 334.078456,242.766355 C342.755147,229.41868 344.69971,212.940416 341.741156,197.487094 C341.766911,197.301383 341.817391,197.188293 341.9261,197.178155 C348.837348,203.720838 354.899028,210.726281 360.437795,218.450693 C365.118272,224.978125 369.433751,231.603475 373.24875,238.687548 C387.940394,265.968468 395.530044,298.506955 390.397511,329.336999 C388.844264,338.667031 386.34128,347.680244 382.646257,356.382417 C372.887914,379.364356 356.428448,398.932377 335.707593,412.847521 C326.781622,418.841779 317.464705,423.7752 307.377762,427.664001 C301.034019,430.109693 294.048605,432.371866 287.676177,433.952557 C287.431071,434.013356 286.949457,433.963033 287.005671,433.903055 L287.31279,433.575369 C293.434925,427.043251 298.436735,419.670987 301.5053,411.216833 C306.786378,396.667016 306.020326,382.501049 299.068794,368.715434 L299.068794,368.715434 Z" id="Path" fill-opacity="0.9" fill="url(#linearGradient-2)" fill-rule="evenodd" opacity="0.98"></path>
    </g>
</svg>